# xmcd
#
# Track frame offsets:
#	150
#	28856
#	48860
#	69111
#	95364
#	118399
#	135764
#	154540
#
# Disc length: 2426 seconds
#
# Revision: 2
# Processed by: cddbd v1.5.2PL0 Copyright (c) Steve Scherf et al.
# Submitted via: EasyCDDAExtractor 15.3.0.1
#
DISCID=5b097808
DTITLE=Olga Tañon - Fuego En Vivo Vol. 1 - Solo Exitos
DYEAR=2008
DGENRE=Latin
TTITLE0=Asi Es La Vida
TTITLE1=Cosas Del Amor (Featuring Jenni Rivera)
TTITLE2=Cuando Tu No Estas
TTITLE3=Medley (Porque No Te Encontre, Desesperadamente Tuya, Asi Es El Amor)
TTITLE4=Medley (Desilusioname, Hoy Quiero Confesarme)
TTITLE5=En La Disco (Featuring Tito El Bambino)
TTITLE6=Presencie Tu Amor
TTITLE7=Medley (Me Cambio Por Ella, Aun Pienso En Ti, No Te Das Cuenta)
EXTD=
EXTT0=
EXTT1=
EXTT2=
EXTT3=
EXTT4=
EXTT5=
EXTT6=
EXTT7=
PLAYORDER=
